%TF.GenerationSoftware,KiCad,Pcbnew,9.0.7-9.0.7~ubuntu22.04.1*%
%TF.CreationDate,2026-03-05T00:00:43-04:00*%
%TF.ProjectId,norgate,6e6f7267-6174-4652-9e6b-696361645f70,rev?*%
%TF.SameCoordinates,Original*%
%TF.FileFunction,Legend,Top*%
%TF.FilePolarity,Positive*%
%FSLAX46Y46*%
G04 Gerber Fmt 4.6, Leading zero omitted, Abs format (unit mm)*
G04 Created by KiCad (PCBNEW 9.0.7-9.0.7~ubuntu22.04.1) date 2026-03-05 00:00:43*
%MOMM*%
%LPD*%
G01*
G04 APERTURE LIST*
%ADD10C,0.150000*%
%ADD11C,0.120000*%
%ADD12C,0.203200*%
%ADD13C,3.000000*%
%ADD14R,0.460000X0.650000*%
G04 APERTURE END LIST*
D10*
X85666666Y-90684819D02*
X85666666Y-91399104D01*
X85666666Y-91399104D02*
X85619047Y-91541961D01*
X85619047Y-91541961D02*
X85523809Y-91637200D01*
X85523809Y-91637200D02*
X85380952Y-91684819D01*
X85380952Y-91684819D02*
X85285714Y-91684819D01*
X86095238Y-90780057D02*
X86142857Y-90732438D01*
X86142857Y-90732438D02*
X86238095Y-90684819D01*
X86238095Y-90684819D02*
X86476190Y-90684819D01*
X86476190Y-90684819D02*
X86571428Y-90732438D01*
X86571428Y-90732438D02*
X86619047Y-90780057D01*
X86619047Y-90780057D02*
X86666666Y-90875295D01*
X86666666Y-90875295D02*
X86666666Y-90970533D01*
X86666666Y-90970533D02*
X86619047Y-91113390D01*
X86619047Y-91113390D02*
X86047619Y-91684819D01*
X86047619Y-91684819D02*
X86666666Y-91684819D01*
X99666666Y-107454819D02*
X99666666Y-108169104D01*
X99666666Y-108169104D02*
X99619047Y-108311961D01*
X99619047Y-108311961D02*
X99523809Y-108407200D01*
X99523809Y-108407200D02*
X99380952Y-108454819D01*
X99380952Y-108454819D02*
X99285714Y-108454819D01*
X100047619Y-107454819D02*
X100666666Y-107454819D01*
X100666666Y-107454819D02*
X100333333Y-107835771D01*
X100333333Y-107835771D02*
X100476190Y-107835771D01*
X100476190Y-107835771D02*
X100571428Y-107883390D01*
X100571428Y-107883390D02*
X100619047Y-107931009D01*
X100619047Y-107931009D02*
X100666666Y-108026247D01*
X100666666Y-108026247D02*
X100666666Y-108264342D01*
X100666666Y-108264342D02*
X100619047Y-108359580D01*
X100619047Y-108359580D02*
X100571428Y-108407200D01*
X100571428Y-108407200D02*
X100476190Y-108454819D01*
X100476190Y-108454819D02*
X100190476Y-108454819D01*
X100190476Y-108454819D02*
X100095238Y-108407200D01*
X100095238Y-108407200D02*
X100047619Y-108359580D01*
X100666666Y-80454819D02*
X100666666Y-81169104D01*
X100666666Y-81169104D02*
X100619047Y-81311961D01*
X100619047Y-81311961D02*
X100523809Y-81407200D01*
X100523809Y-81407200D02*
X100380952Y-81454819D01*
X100380952Y-81454819D02*
X100285714Y-81454819D01*
X101666666Y-81454819D02*
X101095238Y-81454819D01*
X101380952Y-81454819D02*
X101380952Y-80454819D01*
X101380952Y-80454819D02*
X101285714Y-80597676D01*
X101285714Y-80597676D02*
X101190476Y-80692914D01*
X101190476Y-80692914D02*
X101095238Y-80740533D01*
X99666666Y-98454819D02*
X99666666Y-99169104D01*
X99666666Y-99169104D02*
X99619047Y-99311961D01*
X99619047Y-99311961D02*
X99523809Y-99407200D01*
X99523809Y-99407200D02*
X99380952Y-99454819D01*
X99380952Y-99454819D02*
X99285714Y-99454819D01*
X100619047Y-98454819D02*
X100142857Y-98454819D01*
X100142857Y-98454819D02*
X100095238Y-98931009D01*
X100095238Y-98931009D02*
X100142857Y-98883390D01*
X100142857Y-98883390D02*
X100238095Y-98835771D01*
X100238095Y-98835771D02*
X100476190Y-98835771D01*
X100476190Y-98835771D02*
X100571428Y-98883390D01*
X100571428Y-98883390D02*
X100619047Y-98931009D01*
X100619047Y-98931009D02*
X100666666Y-99026247D01*
X100666666Y-99026247D02*
X100666666Y-99264342D01*
X100666666Y-99264342D02*
X100619047Y-99359580D01*
X100619047Y-99359580D02*
X100571428Y-99407200D01*
X100571428Y-99407200D02*
X100476190Y-99454819D01*
X100476190Y-99454819D02*
X100238095Y-99454819D01*
X100238095Y-99454819D02*
X100142857Y-99407200D01*
X100142857Y-99407200D02*
X100095238Y-99359580D01*
X99666666Y-88954819D02*
X99666666Y-89669104D01*
X99666666Y-89669104D02*
X99619047Y-89811961D01*
X99619047Y-89811961D02*
X99523809Y-89907200D01*
X99523809Y-89907200D02*
X99380952Y-89954819D01*
X99380952Y-89954819D02*
X99285714Y-89954819D01*
X100571428Y-89288152D02*
X100571428Y-89954819D01*
X100333333Y-88907200D02*
X100095238Y-89621485D01*
X100095238Y-89621485D02*
X100714285Y-89621485D01*
D11*
%TO.C,J2*%
X81380000Y-92230000D02*
X90620000Y-92230000D01*
X81380000Y-99770000D02*
X81380000Y-92230000D01*
X90620000Y-92230000D02*
X90620000Y-99770000D01*
X90620000Y-99770000D02*
X81380000Y-99770000D01*
D12*
%TO.C,Q3*%
X86275000Y-89175000D02*
X86575000Y-89175000D01*
X86275000Y-89525000D02*
X86275000Y-89175000D01*
X86925000Y-89875000D02*
X87075000Y-89875000D01*
X87425000Y-89175000D02*
X87725000Y-89175000D01*
X87725000Y-89175000D02*
X87725000Y-89525000D01*
%TO.C,Q5*%
X89275000Y-85175000D02*
X89575000Y-85175000D01*
X89275000Y-85525000D02*
X89275000Y-85175000D01*
X89925000Y-85875000D02*
X90075000Y-85875000D01*
X90425000Y-85175000D02*
X90725000Y-85175000D01*
X90725000Y-85175000D02*
X90725000Y-85525000D01*
%TO.C,Q2*%
X80275000Y-89175000D02*
X80575000Y-89175000D01*
X80275000Y-89525000D02*
X80275000Y-89175000D01*
X80925000Y-89875000D02*
X81075000Y-89875000D01*
X81425000Y-89175000D02*
X81725000Y-89175000D01*
X81725000Y-89175000D02*
X81725000Y-89525000D01*
%TO.C,Q4*%
X89275000Y-89175000D02*
X89575000Y-89175000D01*
X89275000Y-89525000D02*
X89275000Y-89175000D01*
X89925000Y-89875000D02*
X90075000Y-89875000D01*
X90425000Y-89175000D02*
X90725000Y-89175000D01*
X90725000Y-89175000D02*
X90725000Y-89525000D01*
%TO.C,Q1*%
X77275000Y-90175000D02*
X77575000Y-90175000D01*
X77275000Y-90525000D02*
X77275000Y-90175000D01*
X77925000Y-90875000D02*
X78075000Y-90875000D01*
X78425000Y-90175000D02*
X78725000Y-90175000D01*
X78725000Y-90175000D02*
X78725000Y-90525000D01*
%TO.C,Q7*%
X83275000Y-89175000D02*
X83575000Y-89175000D01*
X83275000Y-89525000D02*
X83275000Y-89175000D01*
X83925000Y-89875000D02*
X84075000Y-89875000D01*
X84425000Y-89175000D02*
X84725000Y-89175000D01*
X84725000Y-89175000D02*
X84725000Y-89525000D01*
D11*
%TO.C,J3*%
X92380000Y-104230000D02*
X101620000Y-104230000D01*
X92380000Y-111770000D02*
X92380000Y-104230000D01*
X101620000Y-104230000D02*
X101620000Y-111770000D01*
X101620000Y-111770000D02*
X92380000Y-111770000D01*
%TO.C,J1*%
X102620000Y-84770000D02*
X93380000Y-84770000D01*
X102620000Y-77230000D02*
X102620000Y-84770000D01*
X93380000Y-84770000D02*
X93380000Y-77230000D01*
X93380000Y-77230000D02*
X102620000Y-77230000D01*
%TO.C,J5*%
X92380000Y-95230000D02*
X101620000Y-95230000D01*
X92380000Y-102770000D02*
X92380000Y-95230000D01*
X101620000Y-95230000D02*
X101620000Y-102770000D01*
X101620000Y-102770000D02*
X92380000Y-102770000D01*
%TO.C,J4*%
X92380000Y-86230000D02*
X101620000Y-86230000D01*
X92380000Y-93770000D02*
X92380000Y-86230000D01*
X101620000Y-86230000D02*
X101620000Y-93770000D01*
X101620000Y-93770000D02*
X92380000Y-93770000D01*
%TD*%
%LPC*%
D13*
%TO.C,J2*%
X86000000Y-96000000D03*
%TD*%
D14*
%TO.C,Q3*%
X86500000Y-90100000D03*
X87500000Y-90100000D03*
X87000000Y-88950000D03*
%TD*%
%TO.C,Q5*%
X89500000Y-86100000D03*
X90500000Y-86100000D03*
X90000000Y-84950000D03*
%TD*%
%TO.C,Q2*%
X80500000Y-90100000D03*
X81500000Y-90100000D03*
X81000000Y-88950000D03*
%TD*%
%TO.C,Q4*%
X89500000Y-90100000D03*
X90500000Y-90100000D03*
X90000000Y-88950000D03*
%TD*%
%TO.C,Q1*%
X77500000Y-91100000D03*
X78500000Y-91100000D03*
X78000000Y-89950000D03*
%TD*%
%TO.C,Q7*%
X83500000Y-90100000D03*
X84500000Y-90100000D03*
X84000000Y-88950000D03*
%TD*%
D13*
%TO.C,J3*%
X97000000Y-108000000D03*
%TD*%
%TO.C,J1*%
X98000000Y-81000000D03*
%TD*%
%TO.C,J5*%
X97000000Y-99000000D03*
%TD*%
%TO.C,J4*%
X97000000Y-90000000D03*
%TD*%
%LPD*%
M02*
