%TF.GenerationSoftware,KiCad,Pcbnew,9.0.7-9.0.7~ubuntu22.04.1*%
%TF.CreationDate,2026-03-05T00:00:43-04:00*%
%TF.ProjectId,norgate,6e6f7267-6174-4652-9e6b-696361645f70,rev?*%
%TF.SameCoordinates,Original*%
%TF.FileFunction,Copper,L2,Bot*%
%TF.FilePolarity,Positive*%
%FSLAX46Y46*%
G04 Gerber Fmt 4.6, Leading zero omitted, Abs format (unit mm)*
G04 Created by KiCad (PCBNEW 9.0.7-9.0.7~ubuntu22.04.1) date 2026-03-05 00:00:43*
%MOMM*%
%LPD*%
G01*
G04 APERTURE LIST*
%TA.AperFunction,ComponentPad*%
%ADD10C,3.000000*%
%TD*%
%TA.AperFunction,ViaPad*%
%ADD11C,0.600000*%
%TD*%
%TA.AperFunction,Conductor*%
%ADD12C,0.200000*%
%TD*%
G04 APERTURE END LIST*
D10*
%TO.P,J2,1,Pin_1*%
%TO.N,Net-(J2-Pin_1)*%
X86000000Y-96000000D03*
%TD*%
%TO.P,J3,1,Pin_1*%
%TO.N,Net-(J3-Pin_1)*%
X97000000Y-108000000D03*
%TD*%
%TO.P,J1,1,Pin_1*%
%TO.N,Net-(J1-Pin_1)*%
X98000000Y-81000000D03*
%TD*%
%TO.P,J5,1,Pin_1*%
%TO.N,Net-(J5-Pin_1)*%
X97000000Y-99000000D03*
%TD*%
%TO.P,J4,1,Pin_1*%
%TO.N,Net-(J4-Pin_1)*%
X97000000Y-90000000D03*
%TD*%
D11*
%TO.N,Net-(Q1-D)*%
X80539900Y-90995600D03*
X76461400Y-90420900D03*
%TO.N,Net-(J5-Pin_1)*%
X88197000Y-94755500D03*
%TO.N,Net-(J4-Pin_1)*%
X86625000Y-90934500D03*
X79579600Y-90201500D03*
%TO.N,Net-(J2-Pin_1)*%
X89109100Y-95140500D03*
%TO.N,GND*%
X91235000Y-93032900D03*
X85380500Y-90730100D03*
X90645200Y-90995600D03*
%TD*%
D12*
%TO.N,Net-(J2-Pin_1)*%
X86000000Y-96000000D02*
X88249600Y-96000000D01*
X88249600Y-96000000D02*
X89109100Y-95140500D01*
%TO.N,Net-(Q1-D)*%
X77036100Y-90995600D02*
X76461400Y-90420900D01*
X80539900Y-90995600D02*
X77036100Y-90995600D01*
%TO.N,Net-(J5-Pin_1)*%
X88452500Y-94500000D02*
X88197000Y-94755500D01*
X92500000Y-94500000D02*
X88452500Y-94500000D01*
X97000000Y-99000000D02*
X92500000Y-94500000D01*
%TO.N,Net-(J4-Pin_1)*%
X87559500Y-90000000D02*
X86625000Y-90934500D01*
X97000000Y-90000000D02*
X87559500Y-90000000D01*
X80281100Y-89500000D02*
X79579600Y-90201500D01*
X85190500Y-89500000D02*
X80281100Y-89500000D01*
X86625000Y-90934500D02*
X85190500Y-89500000D01*
%TD*%
%TA.AperFunction,Conductor*%
%TO.N,GND*%
G36*
X103942539Y-77520185D02*
G01*
X103988294Y-77572989D01*
X103999500Y-77624500D01*
X103999500Y-111375500D01*
X103979815Y-111442539D01*
X103927011Y-111488294D01*
X103875500Y-111499500D01*
X75624500Y-111499500D01*
X75557461Y-111479815D01*
X75511706Y-111427011D01*
X75500500Y-111375500D01*
X75500500Y-107868872D01*
X94999500Y-107868872D01*
X94999500Y-108131127D01*
X95026123Y-108333339D01*
X95033730Y-108391116D01*
X95101602Y-108644418D01*
X95101605Y-108644428D01*
X95201953Y-108886690D01*
X95201958Y-108886700D01*
X95333075Y-109113803D01*
X95492718Y-109321851D01*
X95492726Y-109321860D01*
X95678140Y-109507274D01*
X95678148Y-109507281D01*
X95886196Y-109666924D01*
X96113299Y-109798041D01*
X96113309Y-109798046D01*
X96355571Y-109898394D01*
X96355581Y-109898398D01*
X96608884Y-109966270D01*
X96868880Y-110000500D01*
X96868887Y-110000500D01*
X97131113Y-110000500D01*
X97131120Y-110000500D01*
X97391116Y-109966270D01*
X97644419Y-109898398D01*
X97886697Y-109798043D01*
X98113803Y-109666924D01*
X98321851Y-109507282D01*
X98321855Y-109507277D01*
X98321860Y-109507274D01*
X98507274Y-109321860D01*
X98507277Y-109321855D01*
X98507282Y-109321851D01*
X98666924Y-109113803D01*
X98798043Y-108886697D01*
X98898398Y-108644419D01*
X98966270Y-108391116D01*
X99000500Y-108131120D01*
X99000500Y-107868880D01*
X98966270Y-107608884D01*
X98898398Y-107355581D01*
X98898394Y-107355571D01*
X98798046Y-107113309D01*
X98798041Y-107113299D01*
X98666924Y-106886196D01*
X98507281Y-106678148D01*
X98507274Y-106678140D01*
X98321860Y-106492726D01*
X98321851Y-106492718D01*
X98113803Y-106333075D01*
X97886700Y-106201958D01*
X97886690Y-106201953D01*
X97644428Y-106101605D01*
X97644421Y-106101603D01*
X97644419Y-106101602D01*
X97391116Y-106033730D01*
X97333339Y-106026123D01*
X97131127Y-105999500D01*
X97131120Y-105999500D01*
X96868880Y-105999500D01*
X96868872Y-105999500D01*
X96637772Y-106029926D01*
X96608884Y-106033730D01*
X96355581Y-106101602D01*
X96355571Y-106101605D01*
X96113309Y-106201953D01*
X96113299Y-106201958D01*
X95886196Y-106333075D01*
X95678148Y-106492718D01*
X95492718Y-106678148D01*
X95333075Y-106886196D01*
X95201958Y-107113299D01*
X95201953Y-107113309D01*
X95101605Y-107355571D01*
X95101602Y-107355581D01*
X95033730Y-107608885D01*
X94999500Y-107868872D01*
X75500500Y-107868872D01*
X75500500Y-95868872D01*
X83999500Y-95868872D01*
X83999500Y-96131127D01*
X84026123Y-96333339D01*
X84033730Y-96391116D01*
X84101602Y-96644418D01*
X84101605Y-96644428D01*
X84201953Y-96886690D01*
X84201958Y-96886700D01*
X84333075Y-97113803D01*
X84492718Y-97321851D01*
X84492726Y-97321860D01*
X84678140Y-97507274D01*
X84678148Y-97507281D01*
X84886196Y-97666924D01*
X85113299Y-97798041D01*
X85113309Y-97798046D01*
X85326125Y-97886197D01*
X85355581Y-97898398D01*
X85608884Y-97966270D01*
X85868880Y-98000500D01*
X85868887Y-98000500D01*
X86131113Y-98000500D01*
X86131120Y-98000500D01*
X86391116Y-97966270D01*
X86644419Y-97898398D01*
X86886697Y-97798043D01*
X87113803Y-97666924D01*
X87321851Y-97507282D01*
X87321855Y-97507277D01*
X87321860Y-97507274D01*
X87507274Y-97321860D01*
X87507277Y-97321855D01*
X87507282Y-97321851D01*
X87666924Y-97113803D01*
X87798043Y-96886697D01*
X87884883Y-96677046D01*
X87897426Y-96661481D01*
X87905731Y-96643297D01*
X87918901Y-96634832D01*
X87928724Y-96622644D01*
X87947691Y-96616331D01*
X87964509Y-96605523D01*
X87992069Y-96601560D01*
X87995018Y-96600579D01*
X87999444Y-96600500D01*
X88162931Y-96600500D01*
X88162947Y-96600501D01*
X88170543Y-96600501D01*
X88328654Y-96600501D01*
X88328657Y-96600501D01*
X88481385Y-96559577D01*
X88531504Y-96530639D01*
X88618316Y-96480520D01*
X88730120Y-96368716D01*
X88730120Y-96368714D01*
X88740328Y-96358507D01*
X88740329Y-96358504D01*
X89123765Y-95975070D01*
X89185084Y-95941588D01*
X89187251Y-95941137D01*
X89187940Y-95941000D01*
X89187942Y-95941000D01*
X89342597Y-95910237D01*
X89488279Y-95849894D01*
X89619389Y-95762289D01*
X89730889Y-95650789D01*
X89818494Y-95519679D01*
X89878837Y-95373997D01*
X89909600Y-95219342D01*
X89909600Y-95219335D01*
X89910197Y-95213282D01*
X89912818Y-95213540D01*
X89929285Y-95157461D01*
X89982089Y-95111706D01*
X90033600Y-95100500D01*
X92199903Y-95100500D01*
X92266942Y-95120185D01*
X92287584Y-95136819D01*
X95161561Y-98010796D01*
X95195046Y-98072119D01*
X95190062Y-98141811D01*
X95188441Y-98145929D01*
X95101607Y-98355565D01*
X95101602Y-98355581D01*
X95033730Y-98608885D01*
X94999500Y-98868872D01*
X94999500Y-99131127D01*
X95026123Y-99333339D01*
X95033730Y-99391116D01*
X95101602Y-99644418D01*
X95101605Y-99644428D01*
X95201953Y-99886690D01*
X95201958Y-99886700D01*
X95333075Y-100113803D01*
X95492718Y-100321851D01*
X95492726Y-100321860D01*
X95678140Y-100507274D01*
X95678148Y-100507281D01*
X95886196Y-100666924D01*
X96113299Y-100798041D01*
X96113309Y-100798046D01*
X96355571Y-100898394D01*
X96355581Y-100898398D01*
X96608884Y-100966270D01*
X96868880Y-101000500D01*
X96868887Y-101000500D01*
X97131113Y-101000500D01*
X97131120Y-101000500D01*
X97391116Y-100966270D01*
X97644419Y-100898398D01*
X97886697Y-100798043D01*
X98113803Y-100666924D01*
X98321851Y-100507282D01*
X98321855Y-100507277D01*
X98321860Y-100507274D01*
X98507274Y-100321860D01*
X98507277Y-100321855D01*
X98507282Y-100321851D01*
X98666924Y-100113803D01*
X98798043Y-99886697D01*
X98898398Y-99644419D01*
X98966270Y-99391116D01*
X99000500Y-99131120D01*
X99000500Y-98868880D01*
X98966270Y-98608884D01*
X98898398Y-98355581D01*
X98898394Y-98355571D01*
X98798046Y-98113309D01*
X98798041Y-98113299D01*
X98666924Y-97886196D01*
X98507281Y-97678148D01*
X98507274Y-97678140D01*
X98321860Y-97492726D01*
X98321851Y-97492718D01*
X98113803Y-97333075D01*
X97886700Y-97201958D01*
X97886690Y-97201953D01*
X97644428Y-97101605D01*
X97644421Y-97101603D01*
X97644419Y-97101602D01*
X97391116Y-97033730D01*
X97333339Y-97026123D01*
X97131127Y-96999500D01*
X97131120Y-96999500D01*
X96868880Y-96999500D01*
X96868872Y-96999500D01*
X96637772Y-97029926D01*
X96608884Y-97033730D01*
X96355581Y-97101602D01*
X96355565Y-97101607D01*
X96145929Y-97188441D01*
X96076460Y-97195910D01*
X96013981Y-97164635D01*
X96010796Y-97161561D01*
X92987590Y-94138355D01*
X92987588Y-94138352D01*
X92868717Y-94019481D01*
X92868716Y-94019480D01*
X92781904Y-93969360D01*
X92781904Y-93969359D01*
X92781900Y-93969358D01*
X92731785Y-93940423D01*
X92579057Y-93899499D01*
X92420943Y-93899499D01*
X92413347Y-93899499D01*
X92413331Y-93899500D01*
X88539170Y-93899500D01*
X88539154Y-93899499D01*
X88531558Y-93899499D01*
X88373443Y-93899499D01*
X88312352Y-93915868D01*
X88220713Y-93940423D01*
X88213205Y-93943534D01*
X88212388Y-93941561D01*
X88162242Y-93955000D01*
X88118155Y-93955000D01*
X87963510Y-93985761D01*
X87963498Y-93985764D01*
X87817827Y-94046102D01*
X87817814Y-94046109D01*
X87686711Y-94133710D01*
X87686707Y-94133713D01*
X87575213Y-94245207D01*
X87575210Y-94245211D01*
X87487609Y-94376314D01*
X87487606Y-94376321D01*
X87472885Y-94411860D01*
X87429043Y-94466263D01*
X87362749Y-94488327D01*
X87295049Y-94471047D01*
X87282844Y-94462787D01*
X87113803Y-94333076D01*
X87113799Y-94333074D01*
X87113797Y-94333072D01*
X86886700Y-94201958D01*
X86886690Y-94201953D01*
X86644428Y-94101605D01*
X86644421Y-94101603D01*
X86644419Y-94101602D01*
X86391116Y-94033730D01*
X86333339Y-94026123D01*
X86131127Y-93999500D01*
X86131120Y-93999500D01*
X85868880Y-93999500D01*
X85868872Y-93999500D01*
X85637772Y-94029926D01*
X85608884Y-94033730D01*
X85355581Y-94101602D01*
X85355571Y-94101605D01*
X85113309Y-94201953D01*
X85113299Y-94201958D01*
X84886196Y-94333075D01*
X84678148Y-94492718D01*
X84492718Y-94678148D01*
X84333075Y-94886196D01*
X84201958Y-95113299D01*
X84201953Y-95113309D01*
X84101605Y-95355571D01*
X84101602Y-95355581D01*
X84033730Y-95608885D01*
X83999500Y-95868872D01*
X75500500Y-95868872D01*
X75500500Y-90816279D01*
X75520185Y-90749240D01*
X75572989Y-90703485D01*
X75642147Y-90693541D01*
X75705703Y-90722566D01*
X75739062Y-90768828D01*
X75752005Y-90800078D01*
X75752009Y-90800085D01*
X75839610Y-90931188D01*
X75839613Y-90931192D01*
X75951107Y-91042686D01*
X75951111Y-91042689D01*
X76082214Y-91130290D01*
X76082227Y-91130297D01*
X76173254Y-91168001D01*
X76227903Y-91190637D01*
X76382558Y-91221400D01*
X76383247Y-91221537D01*
X76445158Y-91253922D01*
X76446737Y-91255473D01*
X76667384Y-91476120D01*
X76667386Y-91476121D01*
X76667390Y-91476124D01*
X76804309Y-91555173D01*
X76804316Y-91555177D01*
X76957043Y-91596101D01*
X76957045Y-91596101D01*
X77122754Y-91596101D01*
X77122770Y-91596100D01*
X79960134Y-91596100D01*
X80027173Y-91615785D01*
X80029025Y-91616998D01*
X80160714Y-91704990D01*
X80160727Y-91704997D01*
X80233162Y-91735000D01*
X80306403Y-91765337D01*
X80461053Y-91796099D01*
X80461056Y-91796100D01*
X80461058Y-91796100D01*
X80618744Y-91796100D01*
X80618745Y-91796099D01*
X80773397Y-91765337D01*
X80919079Y-91704994D01*
X81050189Y-91617389D01*
X81161689Y-91505889D01*
X81249294Y-91374779D01*
X81309637Y-91229097D01*
X81340400Y-91074442D01*
X81340400Y-90916758D01*
X81340400Y-90916755D01*
X81340399Y-90916753D01*
X81317191Y-90800079D01*
X81309637Y-90762103D01*
X81304309Y-90749240D01*
X81249297Y-90616427D01*
X81249290Y-90616414D01*
X81161689Y-90485311D01*
X81161686Y-90485307D01*
X81050192Y-90373813D01*
X81050188Y-90373810D01*
X80981033Y-90327602D01*
X80936228Y-90273990D01*
X80927521Y-90204665D01*
X80957675Y-90141637D01*
X81017118Y-90104918D01*
X81049924Y-90100500D01*
X84890403Y-90100500D01*
X84957442Y-90120185D01*
X84978084Y-90136819D01*
X85790425Y-90949160D01*
X85823910Y-91010483D01*
X85824361Y-91012649D01*
X85855261Y-91167991D01*
X85855264Y-91168001D01*
X85915602Y-91313672D01*
X85915609Y-91313685D01*
X86003210Y-91444788D01*
X86003213Y-91444792D01*
X86114707Y-91556286D01*
X86114711Y-91556289D01*
X86245814Y-91643890D01*
X86245827Y-91643897D01*
X86391498Y-91704235D01*
X86391503Y-91704237D01*
X86546153Y-91734999D01*
X86546156Y-91735000D01*
X86546158Y-91735000D01*
X86703844Y-91735000D01*
X86703845Y-91734999D01*
X86858497Y-91704237D01*
X87004179Y-91643894D01*
X87135289Y-91556289D01*
X87246789Y-91444789D01*
X87334394Y-91313679D01*
X87394737Y-91167997D01*
X87414113Y-91070585D01*
X87425638Y-91012650D01*
X87458023Y-90950739D01*
X87459462Y-90949272D01*
X87771918Y-90636816D01*
X87833240Y-90603334D01*
X87859598Y-90600500D01*
X95000556Y-90600500D01*
X95067595Y-90620185D01*
X95113350Y-90672989D01*
X95115117Y-90677047D01*
X95201954Y-90886690D01*
X95201958Y-90886700D01*
X95333075Y-91113803D01*
X95492718Y-91321851D01*
X95492726Y-91321860D01*
X95678140Y-91507274D01*
X95678148Y-91507281D01*
X95886196Y-91666924D01*
X96113299Y-91798041D01*
X96113309Y-91798046D01*
X96355571Y-91898394D01*
X96355581Y-91898398D01*
X96608884Y-91966270D01*
X96868880Y-92000500D01*
X96868887Y-92000500D01*
X97131113Y-92000500D01*
X97131120Y-92000500D01*
X97391116Y-91966270D01*
X97644419Y-91898398D01*
X97886697Y-91798043D01*
X98113803Y-91666924D01*
X98321851Y-91507282D01*
X98321855Y-91507277D01*
X98321860Y-91507274D01*
X98507274Y-91321860D01*
X98507277Y-91321855D01*
X98507282Y-91321851D01*
X98666924Y-91113803D01*
X98798043Y-90886697D01*
X98898398Y-90644419D01*
X98966270Y-90391116D01*
X99000500Y-90131120D01*
X99000500Y-89868880D01*
X98966270Y-89608884D01*
X98898398Y-89355581D01*
X98805491Y-89131284D01*
X98798046Y-89113309D01*
X98798041Y-89113299D01*
X98666924Y-88886196D01*
X98507281Y-88678148D01*
X98507274Y-88678140D01*
X98321860Y-88492726D01*
X98321851Y-88492718D01*
X98113803Y-88333075D01*
X97886700Y-88201958D01*
X97886690Y-88201953D01*
X97644428Y-88101605D01*
X97644421Y-88101603D01*
X97644419Y-88101602D01*
X97391116Y-88033730D01*
X97333339Y-88026123D01*
X97131127Y-87999500D01*
X97131120Y-87999500D01*
X96868880Y-87999500D01*
X96868872Y-87999500D01*
X96637772Y-88029926D01*
X96608884Y-88033730D01*
X96355581Y-88101602D01*
X96355571Y-88101605D01*
X96113309Y-88201953D01*
X96113299Y-88201958D01*
X95886196Y-88333075D01*
X95678148Y-88492718D01*
X95492718Y-88678148D01*
X95333075Y-88886196D01*
X95201958Y-89113299D01*
X95201954Y-89113309D01*
X95115117Y-89322953D01*
X95071276Y-89377356D01*
X95004982Y-89399421D01*
X95000556Y-89399500D01*
X87646170Y-89399500D01*
X87646154Y-89399499D01*
X87638558Y-89399499D01*
X87480443Y-89399499D01*
X87404079Y-89419961D01*
X87327714Y-89440423D01*
X87327709Y-89440426D01*
X87190790Y-89519475D01*
X87190782Y-89519481D01*
X86712680Y-89997583D01*
X86651357Y-90031068D01*
X86581665Y-90026084D01*
X86537318Y-89997583D01*
X85678090Y-89138355D01*
X85678088Y-89138352D01*
X85559217Y-89019481D01*
X85559216Y-89019480D01*
X85472404Y-88969360D01*
X85472404Y-88969359D01*
X85472400Y-88969358D01*
X85422285Y-88940423D01*
X85269557Y-88899499D01*
X85111443Y-88899499D01*
X85103847Y-88899499D01*
X85103831Y-88899500D01*
X80367769Y-88899500D01*
X80367753Y-88899499D01*
X80360157Y-88899499D01*
X80202043Y-88899499D01*
X80094687Y-88928265D01*
X80049310Y-88940424D01*
X80049309Y-88940425D01*
X79999196Y-88969359D01*
X79999195Y-88969360D01*
X79955789Y-88994420D01*
X79912385Y-89019479D01*
X79912382Y-89019481D01*
X79564939Y-89366925D01*
X79503616Y-89400410D01*
X79501450Y-89400861D01*
X79346108Y-89431761D01*
X79346098Y-89431764D01*
X79200427Y-89492102D01*
X79200414Y-89492109D01*
X79069311Y-89579710D01*
X79069307Y-89579713D01*
X78957813Y-89691207D01*
X78957810Y-89691211D01*
X78870209Y-89822314D01*
X78870202Y-89822327D01*
X78809864Y-89967998D01*
X78809861Y-89968010D01*
X78779100Y-90122653D01*
X78779100Y-90271100D01*
X78759415Y-90338139D01*
X78706611Y-90383894D01*
X78655100Y-90395100D01*
X77374215Y-90395100D01*
X77307176Y-90375415D01*
X77261421Y-90322611D01*
X77252598Y-90295291D01*
X77238787Y-90225863D01*
X77231137Y-90187403D01*
X77188830Y-90085264D01*
X77170797Y-90041727D01*
X77170790Y-90041714D01*
X77083189Y-89910611D01*
X77083186Y-89910607D01*
X76971692Y-89799113D01*
X76971688Y-89799110D01*
X76840585Y-89711509D01*
X76840572Y-89711502D01*
X76694901Y-89651164D01*
X76694889Y-89651161D01*
X76540245Y-89620400D01*
X76540242Y-89620400D01*
X76382558Y-89620400D01*
X76382555Y-89620400D01*
X76227910Y-89651161D01*
X76227898Y-89651164D01*
X76082227Y-89711502D01*
X76082214Y-89711509D01*
X75951111Y-89799110D01*
X75951107Y-89799113D01*
X75839613Y-89910607D01*
X75839610Y-89910611D01*
X75752009Y-90041714D01*
X75752002Y-90041727D01*
X75739061Y-90072972D01*
X75695220Y-90127376D01*
X75628926Y-90149441D01*
X75561227Y-90132162D01*
X75513616Y-90081025D01*
X75500500Y-90025520D01*
X75500500Y-80868872D01*
X95999500Y-80868872D01*
X95999500Y-81131127D01*
X96026123Y-81333339D01*
X96033730Y-81391116D01*
X96101602Y-81644418D01*
X96101605Y-81644428D01*
X96201953Y-81886690D01*
X96201958Y-81886700D01*
X96333075Y-82113803D01*
X96492718Y-82321851D01*
X96492726Y-82321860D01*
X96678140Y-82507274D01*
X96678148Y-82507281D01*
X96886196Y-82666924D01*
X97113299Y-82798041D01*
X97113309Y-82798046D01*
X97355571Y-82898394D01*
X97355581Y-82898398D01*
X97608884Y-82966270D01*
X97868880Y-83000500D01*
X97868887Y-83000500D01*
X98131113Y-83000500D01*
X98131120Y-83000500D01*
X98391116Y-82966270D01*
X98644419Y-82898398D01*
X98886697Y-82798043D01*
X99113803Y-82666924D01*
X99321851Y-82507282D01*
X99321855Y-82507277D01*
X99321860Y-82507274D01*
X99507274Y-82321860D01*
X99507277Y-82321855D01*
X99507282Y-82321851D01*
X99666924Y-82113803D01*
X99798043Y-81886697D01*
X99898398Y-81644419D01*
X99966270Y-81391116D01*
X100000500Y-81131120D01*
X100000500Y-80868880D01*
X99966270Y-80608884D01*
X99898398Y-80355581D01*
X99898394Y-80355571D01*
X99798046Y-80113309D01*
X99798041Y-80113299D01*
X99666924Y-79886196D01*
X99507281Y-79678148D01*
X99507274Y-79678140D01*
X99321860Y-79492726D01*
X99321851Y-79492718D01*
X99113803Y-79333075D01*
X98886700Y-79201958D01*
X98886690Y-79201953D01*
X98644428Y-79101605D01*
X98644421Y-79101603D01*
X98644419Y-79101602D01*
X98391116Y-79033730D01*
X98333339Y-79026123D01*
X98131127Y-78999500D01*
X98131120Y-78999500D01*
X97868880Y-78999500D01*
X97868872Y-78999500D01*
X97637772Y-79029926D01*
X97608884Y-79033730D01*
X97355581Y-79101602D01*
X97355571Y-79101605D01*
X97113309Y-79201953D01*
X97113299Y-79201958D01*
X96886196Y-79333075D01*
X96678148Y-79492718D01*
X96492718Y-79678148D01*
X96333075Y-79886196D01*
X96201958Y-80113299D01*
X96201953Y-80113309D01*
X96101605Y-80355571D01*
X96101602Y-80355581D01*
X96033730Y-80608885D01*
X95999500Y-80868872D01*
X75500500Y-80868872D01*
X75500500Y-77624500D01*
X75520185Y-77557461D01*
X75572989Y-77511706D01*
X75624500Y-77500500D01*
X103875500Y-77500500D01*
X103942539Y-77520185D01*
G37*
%TD.AperFunction*%
%TD*%
M02*
