%TF.GenerationSoftware,KiCad,Pcbnew,9.0.7-9.0.7~ubuntu22.04.1*%
%TF.CreationDate,2026-03-05T00:00:43-04:00*%
%TF.ProjectId,norgate,6e6f7267-6174-4652-9e6b-696361645f70,rev?*%
%TF.SameCoordinates,Original*%
%TF.FileFunction,Copper,L1,Top*%
%TF.FilePolarity,Positive*%
%FSLAX46Y46*%
G04 Gerber Fmt 4.6, Leading zero omitted, Abs format (unit mm)*
G04 Created by KiCad (PCBNEW 9.0.7-9.0.7~ubuntu22.04.1) date 2026-03-05 00:00:43*
%MOMM*%
%LPD*%
G01*
G04 APERTURE LIST*
%TA.AperFunction,Conductor*%
%ADD10C,0.200000*%
%TD*%
%TA.AperFunction,ComponentPad*%
%ADD11C,3.000000*%
%TD*%
%TA.AperFunction,SMDPad,CuDef*%
%ADD12R,0.460000X0.650000*%
%TD*%
%TA.AperFunction,ViaPad*%
%ADD13C,0.600000*%
%TD*%
G04 APERTURE END LIST*
D10*
%TO.N,Net-(Q1-D)*%
X78000000Y-90000000D02*
X76500000Y-90500000D01*
%TO.N,GND*%
X91000000Y-93000000D02*
X90500000Y-90000000D01*
%TD*%
D11*
%TO.P,J2,1,Pin_1*%
%TO.N,Net-(J2-Pin_1)*%
X86000000Y-96000000D03*
%TD*%
D12*
%TO.P,Q3,1,G*%
%TO.N,Net-(J4-Pin_1)*%
X86500000Y-90100000D03*
%TO.P,Q3,2,S*%
%TO.N,GND*%
X87500000Y-90100000D03*
%TO.P,Q3,3,D*%
%TO.N,Net-(J5-Pin_1)*%
X87000000Y-88950000D03*
%TD*%
%TO.P,Q5,1,G*%
%TO.N,Net-(J2-Pin_1)*%
X89500000Y-86100000D03*
%TO.P,Q5,2,S*%
%TO.N,Net-(J1-Pin_1)*%
X90500000Y-86100000D03*
%TO.P,Q5,3,D*%
%TO.N,Net-(Q1-S)*%
X90000000Y-84950000D03*
%TD*%
%TO.P,Q2,1,G*%
%TO.N,Net-(J4-Pin_1)*%
X80500000Y-90100000D03*
%TO.P,Q2,2,S*%
%TO.N,Net-(Q1-D)*%
X81500000Y-90100000D03*
%TO.P,Q2,3,D*%
%TO.N,Net-(J5-Pin_1)*%
X81000000Y-88950000D03*
%TD*%
%TO.P,Q4,1,G*%
%TO.N,Net-(J2-Pin_1)*%
X89500000Y-90100000D03*
%TO.P,Q4,2,S*%
%TO.N,GND*%
X90500000Y-90100000D03*
%TO.P,Q4,3,D*%
%TO.N,Net-(J5-Pin_1)*%
X90000000Y-88950000D03*
%TD*%
%TO.P,Q1,1,G*%
%TO.N,Net-(J3-Pin_1)*%
X77500000Y-91100000D03*
%TO.P,Q1,2,S*%
%TO.N,Net-(Q1-S)*%
X78500000Y-91100000D03*
%TO.P,Q1,3,D*%
%TO.N,Net-(Q1-D)*%
X78000000Y-89950000D03*
%TD*%
%TO.P,Q7,1,G*%
%TO.N,Net-(J3-Pin_1)*%
X83500000Y-90100000D03*
%TO.P,Q7,2,S*%
%TO.N,GND*%
X84500000Y-90100000D03*
%TO.P,Q7,3,D*%
%TO.N,Net-(J5-Pin_1)*%
X84000000Y-88950000D03*
%TD*%
D11*
%TO.P,J3,1,Pin_1*%
%TO.N,Net-(J3-Pin_1)*%
X97000000Y-108000000D03*
%TD*%
%TO.P,J1,1,Pin_1*%
%TO.N,Net-(J1-Pin_1)*%
X98000000Y-81000000D03*
%TD*%
%TO.P,J5,1,Pin_1*%
%TO.N,Net-(J5-Pin_1)*%
X97000000Y-99000000D03*
%TD*%
%TO.P,J4,1,Pin_1*%
%TO.N,Net-(J4-Pin_1)*%
X97000000Y-90000000D03*
%TD*%
D13*
%TO.N,Net-(Q1-D)*%
X80539900Y-90995600D03*
X76461400Y-90420900D03*
%TO.N,Net-(J5-Pin_1)*%
X88197000Y-94755500D03*
%TO.N,Net-(J4-Pin_1)*%
X86625000Y-90934500D03*
X79579600Y-90201500D03*
%TO.N,Net-(J2-Pin_1)*%
X89109100Y-95140500D03*
%TO.N,GND*%
X91235000Y-93032900D03*
X85380500Y-90730100D03*
X90645200Y-90995600D03*
%TD*%
D10*
%TO.N,Net-(J1-Pin_1)*%
X90500000Y-86100000D02*
X91100000Y-85500000D01*
X91100000Y-85500000D02*
X93500000Y-85500000D01*
X93500000Y-85500000D02*
X98000000Y-81000000D01*
%TO.N,Net-(J3-Pin_1)*%
X77500000Y-91100000D02*
X78142900Y-91742900D01*
X78142900Y-91742900D02*
X81757100Y-91742900D01*
X81757100Y-91742900D02*
X82460600Y-91039400D01*
X82460600Y-91039400D02*
X83500000Y-91039400D01*
X83500000Y-91039400D02*
X84539400Y-91039400D01*
X86745999Y-93722499D02*
X87596000Y-94572500D01*
X84539400Y-91039400D02*
X86745999Y-93245999D01*
X86745999Y-93245999D02*
X86745999Y-93722499D01*
X87596000Y-94572500D02*
X87596000Y-95004443D01*
X87596000Y-95004443D02*
X87948057Y-95356500D01*
X87948057Y-95356500D02*
X88380000Y-95356500D01*
X88380000Y-95356500D02*
X97000000Y-103976500D01*
X97000000Y-103976500D02*
X97000000Y-108000000D01*
%TO.N,Net-(Q1-D)*%
X80604400Y-90995600D02*
X80539900Y-90995600D01*
X81500000Y-90100000D02*
X80604400Y-90995600D01*
%TO.N,Net-(Q1-S)*%
X78531000Y-91069000D02*
X78500000Y-91100000D01*
X78531000Y-89969000D02*
X78531000Y-91069000D01*
X83550000Y-84950000D02*
X78531000Y-89969000D01*
X90000000Y-84950000D02*
X83550000Y-84950000D01*
%TO.N,Net-(J5-Pin_1)*%
X88197000Y-94755500D02*
X88197000Y-94394200D01*
X81000000Y-88950000D02*
X84000000Y-88950000D01*
X88197000Y-94394200D02*
X88197000Y-94755500D01*
X85500000Y-88950000D02*
X87000000Y-88950000D01*
X96999900Y-99000000D02*
X97000000Y-99000000D01*
X96999900Y-95418200D02*
X96999900Y-99000000D01*
X90531700Y-88950000D02*
X96999900Y-95418200D01*
X90000000Y-88950000D02*
X90531700Y-88950000D01*
X88197000Y-94394200D02*
X88197000Y-94755500D01*
X84000000Y-88950000D02*
X85500000Y-88950000D01*
X88197000Y-89815300D02*
X88197000Y-94394200D01*
X87756700Y-89375000D02*
X88197000Y-89815300D01*
X87299500Y-89375000D02*
X87756700Y-89375000D01*
X86874500Y-88950000D02*
X87299500Y-89375000D01*
X85500000Y-88950000D02*
X86874500Y-88950000D01*
%TO.N,Net-(J4-Pin_1)*%
X79968300Y-90100000D02*
X80500000Y-90100000D01*
X79866800Y-90201500D02*
X79968300Y-90100000D01*
X79579600Y-90201500D02*
X79866800Y-90201500D01*
X86500000Y-90809500D02*
X86625000Y-90934500D01*
X86500000Y-90100000D02*
X86500000Y-90809500D01*
%TO.N,Net-(J3-Pin_1)*%
X83500000Y-90100000D02*
X83500000Y-91039400D01*
%TO.N,Net-(J2-Pin_1)*%
X89307000Y-89907000D02*
X89500000Y-90100000D01*
X89307000Y-86293000D02*
X89307000Y-89907000D01*
X89500000Y-86100000D02*
X89307000Y-86293000D01*
X89500000Y-90726700D02*
X89500000Y-90100000D01*
X89109100Y-91117600D02*
X89500000Y-90726700D01*
X89109100Y-95140500D02*
X89109100Y-91117600D01*
%TO.N,GND*%
X86388200Y-91589500D02*
X85454700Y-90655900D01*
X86837100Y-91589500D02*
X86388200Y-91589500D01*
X87500000Y-90926600D02*
X86837100Y-91589500D01*
X87500000Y-90100000D02*
X87500000Y-90926600D01*
X85031700Y-90100000D02*
X84500000Y-90100000D01*
X85031700Y-90233000D02*
X85031700Y-90100000D01*
X85454700Y-90655900D02*
X85031700Y-90233000D01*
X85380500Y-90730100D02*
X85454700Y-90655900D01*
X90500000Y-90850400D02*
X90500000Y-90100000D01*
X90645200Y-90995600D02*
X90500000Y-90850400D01*
%TD*%
M02*
